<svg width="46" height="46" viewBox="0 0 46 46" fill="none" xmlns="http://www.w3.org/2000/svg">
<path fill-rule="evenodd" clip-rule="evenodd" d="M45.7503 4.34058V15.1756H34.917V13.0072H43.5828V4.34058H45.7503Z" fill="#FF3E01"/>
<path fill-rule="evenodd" clip-rule="evenodd" d="M10.572 3.69405C14.9927 0.811234 20.2781 -0.445006 25.5232 0.140465C30.7682 0.725935 35.6466 3.11669 39.3228 6.90332L39.3315 6.91199L45.451 13.3435L43.8806 14.8385L37.7637 8.40959C34.4372 4.98472 30.0235 2.82283 25.2785 2.2941C20.5334 1.76537 15.7521 2.9027 11.7534 5.51133C7.7546 8.11996 4.78709 12.0376 3.35899 16.5935C1.93089 21.1493 2.13104 26.0599 3.92516 30.4844C5.71929 34.9089 8.99578 38.5721 13.1936 40.8466C17.3914 43.1212 22.2494 43.8656 26.9356 42.9525C31.6219 42.0394 35.845 39.5254 38.8817 35.8412C41.9185 32.157 43.5799 27.5317 43.5816 22.7573H45.75C45.7486 26.698 44.7237 30.5708 42.7755 33.9963C40.8273 37.4218 38.0227 40.2825 34.6365 42.2982C31.2502 44.3139 27.3985 45.4154 23.4585 45.4948C19.5186 45.5742 15.6256 44.6289 12.1608 42.7513C8.69613 40.8737 5.77853 38.1284 3.69387 34.7842C1.60921 31.44 0.428981 27.6116 0.268804 23.6741C0.108627 19.7366 0.973993 15.8251 2.78013 12.3226C4.58627 8.82009 7.27123 5.84683 10.572 3.69405Z" fill="#FF3E01"/>
<path fill-rule="evenodd" clip-rule="evenodd" d="M24.0835 30.3406V33.5906H21.916V30.3406H24.0835ZM21.916 15.174V11.924H24.0835V15.174H21.916Z" fill="#FF3E01"/>
<path fill-rule="evenodd" clip-rule="evenodd" d="M16.6848 15.3594C17.0874 14.9569 17.5653 14.6377 18.0913 14.42C18.6173 14.2023 19.181 14.0904 19.7502 14.0906H26.2502C27.3995 14.0906 28.5017 14.5471 29.3143 15.3598C30.127 16.1724 30.5836 17.2746 30.5836 18.4239V19.5072H28.416V18.4239C28.4159 18.1395 28.3598 17.8579 28.2508 17.5952C28.1419 17.3324 27.9823 17.0937 27.7811 16.8927C27.5799 16.6917 27.341 16.5322 27.0782 16.4235C26.8154 16.3148 26.5338 16.2589 26.2494 16.259H19.7494C19.1752 16.2592 18.6247 16.4874 18.2188 16.8933C17.8128 17.2993 17.5846 17.8498 17.5844 18.4239V19.5072C17.5844 19.7917 17.6405 20.0734 17.7494 20.3363C17.8583 20.5991 18.0179 20.8379 18.2191 21.039C18.4203 21.2401 18.6591 21.3996 18.922 21.5084C19.1849 21.6172 19.4666 21.6732 19.7511 21.673H26.2511C27.4004 21.673 28.5026 22.1296 29.3152 22.9422C30.1279 23.7549 30.5844 24.8571 30.5844 26.0064V27.0906C30.5846 27.6598 30.4727 28.2235 30.2551 28.7494C30.0374 29.2754 29.7182 29.7533 29.3158 30.1558C28.9134 30.5584 28.4356 30.8777 27.9098 31.0956C27.3839 31.3135 26.8203 31.4256 26.2511 31.4256H19.7511C19.1818 31.4258 18.618 31.3137 18.092 31.0959C17.566 30.8781 17.088 30.5588 16.6855 30.1562C16.2829 29.7536 15.9636 29.2757 15.7458 28.7497C15.528 28.2237 15.4159 27.6599 15.416 27.0906V26.0072H17.5835V27.0906C17.5835 27.3751 17.6396 27.6568 17.7485 27.9196C17.8574 28.1824 18.017 28.4212 18.2182 28.6223C18.4194 28.8235 18.6583 28.983 18.9211 29.0918C19.184 29.2006 19.4657 29.2565 19.7502 29.2564H26.2502C26.8246 29.2564 27.3755 29.0282 27.7817 28.622C28.1878 28.2159 28.416 27.665 28.416 27.0906V26.0072C28.4159 25.7228 28.3598 25.4412 28.2508 25.1785C28.1419 24.9158 27.9823 24.6771 27.7811 24.476C27.5799 24.275 27.341 24.1156 27.0782 24.0068C26.8154 23.8981 26.5338 23.8422 26.2494 23.8423H19.7494C18.6 23.8421 17.4978 23.3853 16.6852 22.5725C15.8725 21.7598 15.416 20.6575 15.416 19.5081V18.4239C15.4158 17.8547 15.5277 17.291 15.7454 16.765C15.9631 16.239 16.2824 15.7611 16.6848 15.3585V15.3594Z" fill="#FF3E01"/>
</svg>
