<svg width="46" height="46" viewBox="0 0 46 46" fill="none" xmlns="http://www.w3.org/2000/svg">
<path d="M27.6178 45.3984C26.5611 45.3984 25.6168 44.626 24.6996 43.876C24.1392 43.4171 23.371 42.789 23.0001 42.789C22.6298 42.789 21.8616 43.4171 21.3012 43.876C20.2965 44.6973 19.1569 45.6312 17.9022 45.3437C16.6074 45.0494 15.9736 43.688 15.4142 42.4874C15.135 41.8869 14.7121 40.9791 14.4116 40.8338C14.0928 40.6781 13.1033 40.9182 12.4486 41.0755C11.1741 41.3822 9.73034 41.7281 8.70951 40.914C7.68503 40.0958 7.70326 38.6057 7.72044 37.2916C7.72878 36.6213 7.74128 35.6088 7.52565 35.338C7.31263 35.0713 6.32669 34.8604 5.67409 34.7208C4.38346 34.4447 2.92201 34.1317 2.34909 32.9442C1.78451 31.775 2.44336 30.4489 3.02357 29.2791C3.32513 28.6729 3.78034 27.7557 3.70065 27.4041C3.62878 27.089 2.8444 26.4802 2.32565 26.077C1.27513 25.2624 0.0839844 24.3374 0.0839844 22.9999C0.0839844 21.6624 1.27513 20.738 2.32617 19.9223C2.84492 19.5197 3.6293 18.9109 3.70117 18.5953C3.78086 18.2437 3.32565 17.3265 3.02461 16.7197C2.44388 15.5499 1.78555 14.2244 2.35065 13.0541C2.92357 11.8671 4.38503 11.5541 5.67513 11.2781C6.32773 11.1385 7.31367 10.9276 7.52617 10.6614C7.74284 10.3901 7.73034 9.37703 7.72201 8.70672C7.70534 7.39266 7.68711 5.90307 8.71107 5.08484C9.73138 4.27026 11.1762 4.61713 12.4501 4.92338C13.1059 5.08068 14.0944 5.3187 14.4126 5.16557C14.7137 5.02026 15.1361 4.11297 15.4158 3.51193C15.9746 2.31088 16.6079 0.949947 17.9027 0.655676C19.1559 0.371301 20.2975 1.30151 21.3017 2.12338C21.8626 2.58224 22.6309 3.21036 23.0012 3.21036C23.3715 3.21036 24.1397 2.58224 24.7001 2.12391C25.7053 1.30151 26.8444 0.369217 28.0996 0.655676C29.3939 0.949947 30.0277 2.3114 30.5871 3.51245C30.8668 4.11297 31.2892 5.02078 31.5902 5.16609C31.9095 5.31974 32.8975 5.0812 33.5522 4.92391C34.8267 4.61766 36.271 4.27078 37.2918 5.08536C38.3163 5.90359 38.298 7.39318 38.2809 8.70776C38.2725 9.37807 38.26 10.3911 38.4757 10.6614C38.6887 10.9276 39.6746 11.139 40.3272 11.2786C41.6178 11.5546 43.0793 11.8671 43.6522 13.0546C44.2168 14.2244 43.5579 15.5505 42.9777 16.7203C42.6762 17.327 42.221 18.2437 42.3007 18.5953C42.3725 18.9109 43.1569 19.5197 43.6757 19.9223C44.7262 20.738 45.9173 21.6624 45.9173 22.9999C45.9173 24.3374 44.7262 25.2619 43.6751 26.0776C43.1564 26.4802 42.372 27.0885 42.3001 27.4052C42.2204 27.7567 42.6757 28.6734 42.9767 29.2802C43.5574 30.4499 44.2158 31.7755 43.6507 32.9458C43.0777 34.1328 41.6163 34.4458 40.3262 34.7213C39.6736 34.8614 38.6876 35.0723 38.4746 35.3385C38.2585 35.6098 38.271 36.6229 38.2793 37.2932C38.296 38.6067 38.3142 40.0963 37.2902 40.9145C36.2699 41.7291 34.8251 41.3817 33.5512 41.076C32.8954 40.9187 31.9069 40.6796 31.5887 40.8343C31.2876 40.9791 30.8652 41.8869 30.5855 42.4874C30.0267 43.689 29.3934 45.05 28.0986 45.3442C27.9361 45.3812 27.7757 45.3984 27.6178 45.3984ZM14.0892 38.7031C14.521 38.7031 14.935 38.7729 15.3168 38.9567C16.2871 39.4244 16.8038 40.5343 17.3033 41.6078C17.5507 42.139 18.0652 43.2442 18.3637 43.3119C18.6413 43.3609 19.5475 42.6177 19.9819 42.2625C20.9184 41.4968 21.8861 40.7052 23.0001 40.7052C24.1142 40.7052 25.0824 41.4973 26.0184 42.2625C26.4527 42.6177 27.3319 43.3463 27.6376 43.3119C27.935 43.2437 28.4501 42.139 28.697 41.6078C29.196 40.5343 29.7126 39.4255 30.6835 38.9567C31.671 38.4802 32.8731 38.7703 34.0371 39.05C34.597 39.1843 35.7642 39.4651 35.9892 39.2859C36.2178 39.1036 36.2027 37.8979 36.1954 37.3187C36.1803 36.125 36.1647 34.8911 36.846 34.038C37.523 33.1901 38.7257 32.9328 39.8892 32.6838C40.459 32.5619 41.6439 32.3083 41.7736 32.0401C41.8944 31.7885 41.3642 30.7197 41.1095 30.2062C40.5757 29.1307 40.023 28.0182 40.2678 26.9432C40.5048 25.9005 41.4668 25.1536 42.3965 24.4317C42.8996 24.0421 43.834 23.3171 43.834 22.9999C43.834 22.6828 42.8996 21.9578 42.3975 21.5677C41.4673 20.8458 40.5053 20.0994 40.2684 19.0562C40.0241 17.9812 40.5767 16.8687 41.1106 15.7932C41.3652 15.2796 41.896 14.2114 41.7746 13.9593C41.6449 13.6906 40.46 13.4374 39.8908 13.3156C38.7272 13.0666 37.5241 12.8093 36.847 11.9619C36.1663 11.1093 36.1819 9.87495 36.197 8.68172C36.2043 8.10255 36.2194 6.8963 35.9908 6.71401C35.7668 6.53484 34.5991 6.81557 34.0382 6.94995C32.8746 7.22963 31.6725 7.51922 30.6845 7.04266C29.7142 6.57443 29.1975 5.46505 28.698 4.39213C28.4507 3.86088 27.9366 2.75568 27.6376 2.68797C27.3512 2.63849 26.4533 3.38224 26.0189 3.73693C25.0829 4.50307 24.1152 5.29474 23.0012 5.29474C21.8871 5.29474 20.9194 4.50255 19.9829 3.73693C19.5486 3.38172 18.6423 2.64161 18.3637 2.68745C18.0658 2.75516 17.5507 3.86036 17.3038 4.39161C16.8043 5.46453 16.2882 6.57391 15.3178 7.04213C14.3303 7.51818 13.1283 7.22964 11.9637 6.94943C11.4038 6.81453 10.2355 6.53432 10.0116 6.71297C9.78294 6.89578 9.79805 8.10151 9.80534 8.68068C9.82044 9.87443 9.83607 11.1088 9.15482 11.9609C8.47774 12.8088 7.27513 13.0661 6.11159 13.3151C5.5418 13.4369 4.3569 13.6906 4.22721 13.9588C4.10638 14.2104 4.63659 15.2791 4.89128 15.7927C5.42513 16.8682 5.97773 17.9807 5.73294 19.0557C5.49596 20.0984 4.53398 20.8453 3.6043 21.5671C3.10169 21.9578 2.16732 22.6828 2.16732 22.9999C2.16732 23.3171 3.10169 24.0427 3.60378 24.4322C4.53399 25.1541 5.49596 25.8999 5.73294 26.9432C5.97721 28.0182 5.42461 29.1302 4.89076 30.2062C4.63607 30.7197 4.10534 31.788 4.22669 32.0401C4.35638 32.3093 5.54128 32.5624 6.11107 32.6843C7.27409 32.9333 8.47721 33.1906 9.1543 34.0385C9.83503 34.8911 9.8194 36.125 9.8043 37.3187C9.79701 37.8979 9.7819 39.1041 10.0105 39.2864C10.2345 39.463 11.4022 39.1848 11.9632 39.05C12.6762 38.8781 13.4048 38.7031 14.0892 38.7031ZM16.4454 31.0281L31.0288 16.4447C31.1283 16.3486 31.2076 16.2337 31.2622 16.1066C31.3168 15.9795 31.3455 15.8428 31.3467 15.7045C31.3479 15.5662 31.3216 15.4291 31.2692 15.301C31.2168 15.173 31.1395 15.0567 31.0417 14.9589C30.9439 14.8611 30.8276 14.7838 30.6996 14.7314C30.5715 14.679 30.4344 14.6527 30.2961 14.6539C30.1578 14.6551 30.0211 14.6838 29.894 14.7384C29.7669 14.793 29.652 14.8723 29.5559 14.9718L14.9725 29.5552C14.873 29.6512 14.7937 29.7662 14.7391 29.8933C14.6845 30.0204 14.6558 30.1571 14.6546 30.2954C14.6534 30.4337 14.6797 30.5708 14.7321 30.6989C14.7845 30.8269 14.8618 30.9432 14.9596 31.041C15.0574 31.1388 15.1737 31.2161 15.3017 31.2685C15.4298 31.3209 15.5669 31.3472 15.7052 31.346C15.8435 31.3448 15.9802 31.3161 16.1073 31.2615C16.2344 31.2069 16.3494 31.1276 16.4454 31.0281ZM17.7923 21.4374C15.7824 21.4374 14.1465 19.802 14.1465 17.7916C14.1465 15.7812 15.7824 14.1458 17.7923 14.1458C19.8022 14.1458 21.4382 15.7812 21.4382 17.7916C21.4382 19.802 19.8022 21.4374 17.7923 21.4374ZM17.7923 16.2291C16.9309 16.2291 16.2298 16.9302 16.2298 17.7916C16.2298 18.6531 16.9309 19.3541 17.7923 19.3541C18.6538 19.3541 19.3548 18.6531 19.3548 17.7916C19.3548 16.9302 18.6538 16.2291 17.7923 16.2291ZM28.209 31.8541C26.1991 31.8541 24.5632 30.2182 24.5632 28.2083C24.5632 26.1984 26.1991 24.5624 28.209 24.5624C30.2189 24.5624 31.8548 26.1984 31.8548 28.2083C31.8548 30.2182 30.2189 31.8541 28.209 31.8541ZM28.209 26.6458C27.3475 26.6458 26.6465 27.3468 26.6465 28.2083C26.6465 29.0697 27.3475 29.7708 28.209 29.7708C29.0704 29.7708 29.7715 29.0697 29.7715 28.2083C29.7715 27.3468 29.0704 26.6458 28.209 26.6458Z" fill="#FF3E01"/>
</svg>
