<svg width="60" height="60" viewBox="0 0 60 60" fill="none" xmlns="http://www.w3.org/2000/svg">
<path d="M59.2422 14.6395L30.3672 0.202024C30.2241 0.130498 30.0663 0.0932617 29.9063 0.0932617C29.7463 0.0932617 29.5884 0.130498 29.4453 0.202024L0.570297 14.6395C0.398869 14.7252 0.254702 14.8569 0.15397 15.02C0.053238 15.183 -7.39324e-05 15.3709 1.53692e-05 15.5625V44.4375C-0.0010355 44.63 0.0518233 44.819 0.152609 44.983C0.253395 45.147 0.398082 45.2796 0.570297 45.3656L29.4453 59.8031C29.5884 59.8746 29.7463 59.9119 29.9063 59.9119C30.0663 59.9119 30.2241 59.8746 30.3672 59.8031L59.2422 45.3656C59.4144 45.2796 59.5591 45.147 59.6599 44.983C59.7607 44.819 59.8136 44.63 59.8125 44.4375V15.5625C59.8126 15.3709 59.7593 15.183 59.6586 15.02C59.5578 14.8569 59.4137 14.7252 59.2422 14.6395ZM29.9063 28.8471L21.845 24.8159L47.6118 11.1281L56.4805 15.5625L29.9063 28.8471ZM13.595 20.6909L39.3618 7.00312L45.343 9.99374L19.5793 23.6836L13.595 20.6909ZM12.375 22.3873L18.5625 25.4811V33.6981L16.1979 31.3334C16.0045 31.14 15.7422 31.0313 15.4688 31.0312H12.375V22.3873ZM29.9063 2.27793L37.0961 5.86874L11.3293 19.5586L3.33714 15.5625L29.9063 2.27793ZM2.06252 17.2311L10.3125 21.3561V32.0625C10.3125 32.336 10.4212 32.5983 10.6146 32.7917C10.808 32.9851 11.0703 33.0937 11.3438 33.0937H15.0418L18.8647 36.9166C19.0089 37.0608 19.1926 37.1589 19.3926 37.1987C19.5927 37.2385 19.8 37.2181 19.9884 37.14C20.1768 37.062 20.3378 36.9299 20.4511 36.7603C20.5645 36.5908 20.625 36.3914 20.625 36.1875V26.5123L28.875 30.6373V57.2064L2.06252 43.8002V17.2311ZM30.9375 57.2064V30.6373L57.75 17.2311V43.8002L30.9375 57.2064Z" fill="#F3F3F3"/>
</svg>
