<svg width="62" height="61" viewBox="0 0 62 61" fill="none" xmlns="http://www.w3.org/2000/svg">
<path fill-rule="evenodd" clip-rule="evenodd" d="M7.29649 41.3435H7.04485C5.17644 41.3435 3.38456 40.6013 2.06338 39.2801C0.742207 37.959 0 36.1671 0 34.2987V28.8248C0 26.9564 0.742207 25.1645 2.06338 23.8434C3.38456 22.5222 5.17644 21.78 7.04485 21.78H9.50616V21.7194C9.50616 9.84811 19.1298 0.224609 31.001 0.224609C42.8723 0.224609 52.4958 9.84811 52.4958 21.7194V21.78H54.9571C56.8255 21.78 58.6174 22.5222 59.9386 23.8434C61.2597 25.1645 62.002 26.9564 62.002 28.8248V34.2987C62.002 36.1671 61.2597 37.959 59.9386 39.2801C58.6174 40.6013 56.8255 41.3435 54.9571 41.3435H51.5443C51.2186 41.3435 50.9061 41.2141 50.6758 40.9837C50.4455 40.7534 50.316 40.441 50.316 40.1152V21.7194C50.316 11.0521 41.6685 2.40437 31.001 2.40437C20.3336 2.40437 11.6859 11.0521 11.6859 21.7194V40.1152C11.6859 40.441 11.5566 40.7534 11.3263 40.9837C11.0958 41.2141 10.7835 41.3435 10.4577 41.3435H9.47637C9.53219 48.2387 15.1384 53.8103 22.0458 53.8103H24.1546C24.3622 52.8522 24.8412 51.965 25.5453 51.2609C26.5104 50.2958 27.8195 49.7535 29.1845 49.7535H32.8174C35.6598 49.7535 37.9641 52.0578 37.9641 54.9002C37.9641 57.7426 35.6598 60.0468 32.8174 60.0468H29.1845C26.7162 60.0468 24.6536 58.3092 24.1535 55.99H22.0458C13.934 55.99 7.35159 49.4417 7.29649 41.3435ZM35.7843 54.9002C35.7843 53.2616 34.456 51.9333 32.8174 51.9333H29.1845C28.3976 51.9333 27.6431 52.2458 27.0866 52.8023C26.5302 53.3587 26.2176 54.1133 26.2176 54.9002C26.2176 56.5387 27.5459 57.8671 29.1845 57.8671H32.8174C34.456 57.8671 35.7843 56.5387 35.7843 54.9002ZM9.50616 23.9597H7.04485C5.75456 23.9597 4.51706 24.4723 3.60471 25.3847C2.69236 26.297 2.17976 27.5345 2.17976 28.8248V34.2987C2.17976 35.589 2.69236 36.8265 3.60471 37.7388C4.51706 38.6512 5.75456 39.1638 7.04485 39.1638H9.50616V23.9597ZM52.4958 23.9597V39.1638H54.9571C56.2474 39.1638 57.4849 38.6512 58.3972 37.7388C59.3097 36.8265 59.8222 35.589 59.8222 34.2987V28.8248C59.8222 27.5345 59.3097 26.297 58.3972 25.3847C57.4849 24.4723 56.2474 23.9597 54.9571 23.9597H52.4958Z" fill="#F3F3F3"/>
</svg>
