<svg width="62" height="62" viewBox="0 0 62 62" fill="none" xmlns="http://www.w3.org/2000/svg">
<path d="M7.54022 60.3244H54.4591C55.1258 60.3244 55.7651 60.0596 56.2365 59.5882C56.7078 59.1168 56.9727 58.4775 56.9727 57.8109V25.1352C56.9727 24.913 56.8844 24.6999 56.7273 24.5428C56.5701 24.3856 56.357 24.2974 56.1348 24.2974C55.9126 24.2974 55.6995 24.3856 55.5424 24.5428C55.3853 24.6999 55.297 24.913 55.297 25.1352V57.8109C55.297 58.0331 55.2087 58.2462 55.0516 58.4033C54.8945 58.5604 54.6814 58.6487 54.4591 58.6487H7.54022C7.31801 58.6487 7.1049 58.5604 6.94778 58.4033C6.79065 58.2462 6.70238 58.0331 6.70238 57.8109V25.1352C6.70238 24.913 6.61411 24.6999 6.45699 24.5428C6.29986 24.3856 6.08675 24.2974 5.86455 24.2974C5.64234 24.2974 5.42923 24.3856 5.27211 24.5428C5.11498 24.6999 5.02671 24.913 5.02671 25.1352V57.8109C5.02671 58.4775 5.29152 59.1168 5.7629 59.5882C6.23427 60.0596 6.8736 60.3244 7.54022 60.3244Z" fill="#F3F3F3"/>
<path d="M3.35125 25.9729H18.1726C18.3948 25.9729 18.6079 25.8846 18.765 25.7275C18.9222 25.5704 19.0104 25.3573 19.0104 25.1351C19.0104 24.9128 18.9222 24.6997 18.765 24.5426C18.6079 24.3855 18.3948 24.2972 18.1726 24.2972H3.35125V15.9188H58.6485V24.2972H43.8272C43.605 24.2972 43.3919 24.3855 43.2348 24.5426C43.0776 24.6997 42.9894 24.9128 42.9894 25.1351C42.9894 25.3573 43.0776 25.5704 43.2348 25.7275C43.3919 25.8846 43.605 25.9729 43.8272 25.9729H58.6485C59.093 25.9729 59.5192 25.7963 59.8334 25.4821C60.1477 25.1678 60.3242 24.7416 60.3242 24.2972V15.9188C60.3242 15.4744 60.1477 15.0482 59.8334 14.734C59.5192 14.4197 59.093 14.2432 58.6485 14.2432H3.35125C2.90683 14.2432 2.48061 14.4197 2.16636 14.734C1.85212 15.0482 1.67557 15.4744 1.67557 15.9188V24.2972C1.67557 24.7416 1.85212 25.1678 2.16636 25.4821C2.48061 25.7963 2.90683 25.9729 3.35125 25.9729Z" fill="#F3F3F3"/>
<path d="M30.9997 15.9188C31.1475 15.9187 31.2926 15.8795 31.4203 15.8052C31.548 15.7309 31.6538 15.6242 31.727 15.4958C31.8002 15.3674 31.8381 15.222 31.8369 15.0743C31.8357 14.9265 31.7955 14.7817 31.7203 14.6545C29.8829 11.5445 25.3376 4.1497 22.8266 2.65164C22.0514 2.15922 21.1854 1.82722 20.2796 1.67527C19.3739 1.52331 18.4469 1.55448 17.5535 1.76694C16.66 1.9794 15.8182 2.36883 15.0779 2.91221C14.3375 3.45559 13.7136 4.14189 13.243 4.93054C12.7725 5.71919 12.4648 6.59419 12.3382 7.50379C12.2116 8.41339 12.2686 9.33915 12.506 10.2263C12.7433 11.1135 13.1561 11.9441 13.72 12.669C14.2838 13.3939 14.9873 13.9984 15.7888 14.4467C16.8126 15.0583 18.8888 15.5518 21.9628 15.9129C22.0732 15.9281 22.1854 15.921 22.2931 15.8923C22.4007 15.8635 22.5015 15.8135 22.5896 15.7453C22.6776 15.6771 22.7512 15.592 22.806 15.4951C22.8608 15.3981 22.8958 15.2911 22.9087 15.1805C22.9217 15.0699 22.9125 14.9577 22.8816 14.8507C22.8508 14.7437 22.7989 14.6439 22.729 14.5571C22.6591 14.4704 22.5726 14.3985 22.4745 14.3456C22.3765 14.2926 22.2689 14.2598 22.158 14.249C18.4389 13.8116 17.11 13.2846 16.6484 13.009C16.059 12.6588 15.5449 12.1951 15.1362 11.6447C14.7274 11.0942 14.4321 10.4681 14.2673 9.80259C14.0181 8.80714 14.0696 7.76016 14.4153 6.79399C14.7611 5.82782 15.3855 4.98583 16.2096 4.37446C17.0338 3.76309 18.0207 3.40978 19.0456 3.35918C20.0705 3.30859 21.0875 3.56298 21.9678 4.09021C23.7491 5.15343 27.428 10.6848 30.2775 15.5066C30.3516 15.6322 30.4572 15.7363 30.5839 15.8086C30.7105 15.8809 30.8539 15.9189 30.9997 15.9188Z" fill="#F3F3F3"/>
<path d="M31 15.9188C31.1458 15.919 31.2891 15.8811 31.4157 15.809C31.5424 15.7368 31.648 15.6329 31.7222 15.5074C34.5709 10.6848 38.2507 5.15343 40.0311 4.09105C40.6172 3.71367 41.2734 3.45814 41.9604 3.3397C42.6474 3.22126 43.3513 3.24232 44.03 3.40163C44.7087 3.56094 45.3484 3.85525 45.911 4.26701C46.4736 4.67876 46.9475 5.19955 47.3045 5.79833C47.6616 6.39712 47.8945 7.06165 47.9893 7.75234C48.0841 8.44302 48.0389 9.14572 47.8564 9.81857C47.6739 10.4914 47.3578 11.1207 46.927 11.6688C46.4962 12.2169 45.9595 12.6727 45.3488 13.009C44.888 13.2846 43.5592 13.8116 39.8392 14.249C39.7283 14.2598 39.6207 14.2926 39.5227 14.3456C39.4247 14.3985 39.3382 14.4704 39.2683 14.5571C39.1983 14.6439 39.1464 14.7437 39.1156 14.8507C39.0847 14.9577 39.0755 15.0699 39.0885 15.1805C39.1015 15.2911 39.1364 15.3981 39.1912 15.4951C39.246 15.592 39.3196 15.6771 39.4077 15.7453C39.4957 15.8135 39.5965 15.8635 39.7041 15.8923C39.8118 15.921 39.924 15.9281 40.0344 15.9129C43.1068 15.5518 45.1846 15.0583 46.2084 14.4467C47.0099 13.9984 47.7134 13.3939 48.2772 12.669C48.8411 11.9441 49.2539 11.1135 49.4912 10.2263C49.7286 9.33915 49.7856 8.41339 49.659 7.50379C49.5324 6.59419 49.2248 5.71919 48.7542 4.93054C48.2836 4.14189 47.6597 3.45559 46.9193 2.91221C46.179 2.36883 45.3372 1.9794 44.4437 1.76694C43.5503 1.55448 42.6233 1.52331 41.7176 1.67527C40.8118 1.82722 39.9458 2.15922 39.1706 2.65164C36.6571 4.1497 32.116 11.5445 30.2778 14.6545C30.2025 14.7818 30.1623 14.9268 30.1612 15.0747C30.16 15.2226 30.1981 15.3681 30.2715 15.4965C30.3448 15.625 30.4509 15.7317 30.5788 15.8059C30.7068 15.88 30.8521 15.919 31 15.9188Z" fill="#F3F3F3"/>
<path d="M26.8111 60.3244H35.1895C35.4117 60.3244 35.6248 60.2361 35.7819 60.079C35.9391 59.9219 36.0273 59.7088 36.0273 59.4865V24.3979C36.0273 24.1757 35.9391 23.9626 35.7819 23.8055C35.6248 23.6483 35.4117 23.5601 35.1895 23.5601C34.9673 23.5601 34.7542 23.6483 34.5971 23.8055C34.4399 23.9626 34.3517 24.1757 34.3517 24.3979V58.6487H27.649V24.3979C27.649 24.1757 27.5607 23.9626 27.4036 23.8055C27.2464 23.6483 27.0333 23.5601 26.8111 23.5601C26.5889 23.5601 26.3758 23.6483 26.2187 23.8055C26.0616 23.9626 25.9733 24.1757 25.9733 24.3979V59.4865C25.9733 59.7088 26.0616 59.9219 26.2187 60.079C26.3758 60.2361 26.5889 60.3244 26.8111 60.3244Z" fill="#F3F3F3"/>
<path d="M26.8609 25.1351H35.1387C35.3609 25.1351 35.574 25.0469 35.7312 24.8898C35.8883 24.7326 35.9766 24.5195 35.9766 24.2973C35.9766 24.0751 35.8883 23.862 35.7312 23.7049C35.574 23.5477 35.3609 23.4595 35.1387 23.4595H26.8609C26.6387 23.4595 26.4256 23.5477 26.2684 23.7049C26.1113 23.862 26.023 24.0751 26.023 24.2973C26.023 24.5195 26.1113 24.7326 26.2684 24.8898C26.4256 25.0469 26.6387 25.1351 26.8609 25.1351Z" fill="#F3F3F3"/>
<path d="M22.8801 33.9853C23.0416 33.9853 23.1996 33.9386 23.3351 33.8509C23.4707 33.7632 23.578 33.6382 23.6442 33.491L31.7645 15.4247C31.8524 15.2225 31.8571 14.9939 31.7775 14.7884C31.698 14.5828 31.5407 14.4169 31.3397 14.3265C31.1387 14.2362 30.9101 14.2286 30.7036 14.3056C30.4971 14.3825 30.3292 14.5378 30.2363 14.7376L23.02 30.7923L21.9392 27.3454C21.9038 27.2324 21.8448 27.1281 21.7662 27.0395C21.6875 26.9509 21.591 26.88 21.4829 26.8314C21.3748 26.7829 21.2577 26.7578 21.1392 26.7579C21.0207 26.758 20.9036 26.7832 20.7956 26.8318L17.6369 28.2562L23.6384 15.4372C23.685 15.3375 23.7116 15.2297 23.7165 15.1197C23.7215 15.0098 23.7047 14.8999 23.6672 14.7964C23.6297 14.693 23.5722 14.5979 23.498 14.5166C23.4237 14.4354 23.3342 14.3696 23.2345 14.3229C23.1348 14.2763 23.0269 14.2497 22.917 14.2447C22.807 14.2398 22.6972 14.2565 22.5937 14.294C22.4902 14.3315 22.3952 14.3891 22.3139 14.4633C22.2327 14.5375 22.1668 14.6271 22.1202 14.7267L15.1603 29.5925C15.088 29.7474 15.0648 29.9207 15.0939 30.0892C15.123 30.2577 15.2029 30.4132 15.3229 30.5349C15.4429 30.6567 15.5972 30.7388 15.7653 30.7703C15.9333 30.8017 16.1069 30.7811 16.2629 30.711L20.6196 28.7471L22.0775 33.3971C22.1282 33.5594 22.2271 33.7025 22.361 33.8072C22.4949 33.912 22.6576 33.9735 22.8273 33.9836L22.8801 33.9853Z" fill="#F3F3F3"/>
<path d="M39.1201 33.9851H39.1704C39.3401 33.975 39.5028 33.9135 39.6367 33.8088C39.7706 33.704 39.8695 33.561 39.9202 33.3987L41.3781 28.7487L45.7348 30.7126C45.8908 30.7826 46.0644 30.8033 46.2324 30.7718C46.4005 30.7403 46.5548 30.6582 46.6748 30.5365C46.7949 30.4147 46.8748 30.2592 46.9038 30.0907C46.9329 29.9223 46.9097 29.749 46.8374 29.594L39.8809 14.7258C39.7867 14.5245 39.6163 14.3688 39.4073 14.2931C39.1984 14.2173 38.9679 14.2277 38.7665 14.3219C38.5652 14.4161 38.4096 14.5865 38.3338 14.7955C38.2581 15.0044 38.2685 15.2349 38.3627 15.4363L44.3641 28.2552L41.2055 26.8309C41.0975 26.7822 40.9804 26.757 40.8619 26.7569C40.7434 26.7569 40.6263 26.7819 40.5182 26.8305C40.4101 26.879 40.3135 26.9499 40.2349 27.0385C40.1562 27.1271 40.0972 27.2314 40.0618 27.3444L38.981 30.7913L31.7639 14.7375C31.671 14.5376 31.5031 14.3824 31.2966 14.3054C31.0901 14.2285 30.8616 14.236 30.6605 14.3264C30.4595 14.4168 30.3022 14.5827 30.2227 14.7882C30.1432 14.9938 30.1478 15.2224 30.2357 15.4245L38.356 33.4908C38.4222 33.6381 38.5295 33.7631 38.6651 33.8508C38.8007 33.9385 38.9587 33.9851 39.1201 33.9851Z" fill="#F3F3F3"/>
</svg>
