<svg width="78" height="60" viewBox="0 0 78 60" fill="none" xmlns="http://www.w3.org/2000/svg">
<path fill-rule="evenodd" clip-rule="evenodd" d="M6.03386 15.8C3.96354 15.8 2.28515 17.4852 2.28515 19.5639V53.9417C2.28515 56.0204 3.96354 57.7056 6.03386 57.7056H64.7299C66.8003 57.7056 68.4786 56.0204 68.4786 53.9417V42.8918C68.4786 42.2582 68.9902 41.7446 69.6212 41.7446C70.2523 41.7446 70.7638 42.2582 70.7638 42.8918V53.9417C70.7638 57.2876 68.0623 60 64.7299 60H6.03386C2.70148 60 0 57.2876 0 53.9417V19.5639C0 16.218 2.70148 13.5056 6.03386 13.5056H64.7299C68.0623 13.5056 70.7638 16.218 70.7638 19.5639V37.9805C70.7638 38.6141 70.2523 39.1277 69.6212 39.1277C68.9902 39.1277 68.4786 38.6141 68.4786 37.9805V19.5639C68.4786 17.4852 66.8003 15.8 64.7299 15.8H6.03386Z" fill="#F3F3F3"/>
<path fill-rule="evenodd" clip-rule="evenodd" d="M71.7285 5.62352C71.489 3.55867 69.6277 2.07979 67.5712 2.32023L9.26926 9.13718C8.27087 9.25388 7.41187 9.75266 6.81689 10.4736C6.41426 10.9614 5.69398 11.0292 5.20809 10.6249C4.72221 10.2206 4.65472 9.49745 5.05736 9.0096C6.01262 7.85216 7.39918 7.04589 9.00493 6.85819C9.00492 6.85819 9.00495 6.85819 9.00493 6.85819L67.3069 0.0412367C70.6169 -0.345761 73.6129 2.03453 73.9983 5.35815L77.9589 39.5051C78.3444 42.8285 75.9737 45.8366 72.6634 46.2236L69.7535 46.5638C69.1267 46.6371 68.5594 46.1863 68.4865 45.557C68.4135 44.9277 68.8624 44.3581 69.4892 44.2848L72.3991 43.9446C74.4557 43.7042 75.9286 41.8354 75.6891 39.7706L71.7285 5.62352Z" fill="#F3F3F3"/>
<path fill-rule="evenodd" clip-rule="evenodd" d="M7.33701 44.1194C7.33701 43.4858 7.84856 42.9722 8.47958 42.9722H18.2623C18.8933 42.9722 19.4049 43.4858 19.4049 44.1194C19.4049 44.753 18.8933 45.2666 18.2623 45.2666H8.47958C7.84856 45.2666 7.33701 44.753 7.33701 44.1194Z" fill="#F3F3F3"/>
<path fill-rule="evenodd" clip-rule="evenodd" d="M7.33701 50.2584C7.33701 49.6249 7.84856 49.1113 8.47958 49.1113H32.9362C33.5672 49.1113 34.0788 49.6249 34.0788 50.2584C34.0788 50.892 33.5672 51.4056 32.9362 51.4056H8.47958C7.84856 51.4056 7.33701 50.892 7.33701 50.2584Z" fill="#F3F3F3"/>
<path fill-rule="evenodd" clip-rule="evenodd" d="M22.011 44.1194C22.011 43.4858 22.5226 42.9722 23.1536 42.9722H32.9362C33.5672 42.9722 34.0788 43.4858 34.0788 44.1194C34.0788 44.753 33.5672 45.2666 32.9362 45.2666H23.1536C22.5226 45.2666 22.011 44.753 22.011 44.1194Z" fill="#F3F3F3"/>
<path fill-rule="evenodd" clip-rule="evenodd" d="M36.685 44.1194C36.685 43.4858 37.1966 42.9722 37.8276 42.9722H47.6102C48.2412 42.9722 48.7528 43.4858 48.7528 44.1194C48.7528 44.753 48.2412 45.2666 47.6102 45.2666H37.8276C37.1966 45.2666 36.685 44.753 36.685 44.1194Z" fill="#F3F3F3"/>
<path fill-rule="evenodd" clip-rule="evenodd" d="M51.3591 44.1194C51.3591 43.4858 51.8706 42.9722 52.5016 42.9722H62.2842C62.9152 42.9722 63.4268 43.4858 63.4268 44.1194C63.4268 44.753 62.9152 45.2666 62.2842 45.2666H52.5016C51.8706 45.2666 51.3591 44.753 51.3591 44.1194Z" fill="#F3F3F3"/>
<path fill-rule="evenodd" clip-rule="evenodd" d="M10.9253 29.3054C10.2055 29.3054 9.62216 29.8912 9.62216 30.6138V35.5249C9.62216 36.2476 10.2056 36.8333 10.9253 36.8333H18.2623C18.9818 36.8333 19.5653 36.2477 19.5655 35.5249C19.5655 35.5249 19.5655 35.525 19.5655 35.5249V30.6138C19.5655 29.8912 18.982 29.3054 18.2623 29.3054H10.9253ZM7.33701 30.6138C7.33701 28.6242 8.9434 27.011 10.9253 27.011H18.2623C20.244 27.011 21.8506 28.6239 21.8506 30.6138V35.5249C21.8504 37.5146 20.2441 39.1277 18.2623 39.1277H10.9253C8.94365 39.1277 7.33701 37.5148 7.33701 35.5249V30.6138Z" fill="#F3F3F3"/>
<path fill-rule="evenodd" clip-rule="evenodd" d="M12.2283 33.0695C12.2283 32.4359 12.7398 31.9223 13.3709 31.9223H15.8166C16.4476 31.9223 16.9592 32.4359 16.9592 33.0695C16.9592 33.703 16.4476 34.2167 15.8166 34.2167H13.3709C12.7398 34.2167 12.2283 33.703 12.2283 33.0695Z" fill="#F3F3F3"/>
<path fill-rule="evenodd" clip-rule="evenodd" d="M58.0294 22.2201C58.5944 21.9378 59.2802 22.1689 59.5613 22.7361C60.4608 24.5512 60.9812 26.5976 60.9812 28.7722C60.9812 30.9468 60.4608 32.9931 59.5614 34.8083C59.2803 35.3755 58.5944 35.6066 58.0294 35.3244C57.4645 35.0421 57.2343 34.3535 57.5154 33.7863C58.2656 32.2724 58.6961 30.5745 58.6961 28.7722C58.6961 26.9699 58.2655 25.2718 57.5154 23.7582C57.2343 23.191 57.4645 22.5023 58.0294 22.2201Z" fill="#F3F3F3"/>
<path fill-rule="evenodd" clip-rule="evenodd" d="M53.6428 24.4379C54.2074 24.1549 54.8935 24.3851 55.1753 24.952C55.7424 26.0925 56.0899 27.3831 56.0899 28.7722C56.0899 30.1613 55.7424 31.4519 55.1753 32.5925C54.8935 33.1593 54.2074 33.3895 53.6428 33.1065C53.0782 32.8236 52.8489 32.1346 53.1307 31.5678C53.5561 30.7122 53.8048 29.7702 53.8048 28.7722C53.8048 27.7742 53.5561 26.8322 53.1307 25.9767C52.8489 25.4098 53.0782 24.7208 53.6428 24.4379Z" fill="#F3F3F3"/>
<path fill-rule="evenodd" clip-rule="evenodd" d="M49.2664 26.6506C49.8286 26.3629 50.5167 26.5874 50.8031 27.152C51.0424 27.6236 51.1985 28.1707 51.1985 28.7722C51.1985 29.3735 51.0425 29.9208 50.8031 30.3925C50.5167 30.957 49.8286 31.1815 49.2664 30.8939C48.7041 30.6063 48.4805 29.9154 48.767 29.3509C48.8637 29.1603 48.9133 28.9675 48.9133 28.7722C48.9133 28.5768 48.8637 28.3842 48.767 28.1935C48.4805 27.629 48.7041 26.9382 49.2664 26.6506Z" fill="#F3F3F3"/>
</svg>
