<svg width="18" height="15" viewBox="0 0 18 15" fill="none" xmlns="http://www.w3.org/2000/svg">
<path d="M17.25 15C17.0511 15 16.8604 14.9232 16.7197 14.7866C16.5791 14.6499 16.5001 14.4646 16.5001 14.2713C16.4989 13.1122 16.0244 12.0008 15.1808 11.1811C14.3372 10.3615 13.1934 9.9005 12.0003 9.89934H7.62809V11.055C7.62802 11.3432 7.54002 11.6249 7.3752 11.8645C7.21039 12.1041 6.97616 12.2908 6.70212 12.4011C6.42809 12.5114 6.12655 12.5402 5.83564 12.484C5.54473 12.4278 5.2775 12.2891 5.06773 12.0853L0.658732 7.80151C0.236946 7.39158 0 6.83566 0 6.25601C0 5.67636 0.236946 5.12045 0.658732 4.71051L5.06773 0.426688C5.2775 0.222939 5.54473 0.0841916 5.83564 0.0279859C6.12655 -0.0282198 6.42809 0.000639567 6.70212 0.110916C6.97616 0.221192 7.21039 0.407934 7.3752 0.647534C7.54002 0.887133 7.62802 1.16883 7.62809 1.45702V2.61268H11.2504C13.0399 2.61461 14.7555 3.30616 16.0209 4.53561C17.2863 5.76505 17.998 7.43198 18 9.17068V14.2713C18 14.4646 17.921 14.6499 17.7803 14.7866C17.6397 14.9232 17.4489 15 17.25 15ZM6.12817 1.45702L1.71917 5.74085C1.57858 5.87749 1.49959 6.0628 1.49959 6.25601C1.49959 6.44923 1.57858 6.63453 1.71917 6.77118L6.12817 11.055V9.17068C6.12817 8.97742 6.20719 8.79208 6.34783 8.65543C6.48847 8.51878 6.67923 8.44201 6.87813 8.44201H12.0003C12.852 8.44176 13.6939 8.61804 14.4698 8.95906C15.2458 9.30008 15.9379 9.79801 16.5001 10.4196V9.17068C16.4985 7.81837 15.9449 6.52189 14.9607 5.56567C13.9766 4.60944 12.6422 4.07156 11.2504 4.07002H6.87813C6.67923 4.07002 6.48847 3.99325 6.34783 3.85659C6.20719 3.71994 6.12817 3.5346 6.12817 3.34135V1.45702Z" fill="#FAFAFA"/>
</svg>
