<svg width="76" height="76" viewBox="0 0 76 76" fill="none" xmlns="http://www.w3.org/2000/svg">
<g clip-path="url(#clip0_220_203)">
<path d="M22.4668 33.3455C22.3453 33.2219 22.2005 33.1237 22.0407 33.0566C21.8808 32.9896 21.7093 32.9551 21.5359 32.9551C21.3626 32.9551 21.1911 32.9896 21.0312 33.0566C20.8714 33.1237 20.7266 33.2219 20.6051 33.3455C20.1771 33.809 10.1377 44.7919 10.1377 52.1983C10.2184 58.4173 15.3169 63.398 21.5359 63.3332C27.7552 63.398 32.8537 58.4173 32.9342 52.1983C32.9342 44.7919 22.8948 33.809 22.4668 33.3455ZM21.5359 60.8002C16.7153 60.8657 12.7505 57.0187 12.6706 52.1983C12.6706 46.9753 19.0878 38.9801 21.5359 36.1229C23.984 38.9801 30.4013 46.9753 30.4013 52.1983C30.3214 57.0187 26.3565 60.8657 21.5359 60.8002Z" fill="white"/>
<path d="M21.536 69.6654C22.2354 69.6654 22.8024 69.0984 22.8024 68.399C22.8024 67.6996 22.2354 67.1326 21.536 67.1326C20.8365 67.1326 20.2695 67.6996 20.2695 68.399C20.2695 69.0984 20.8365 69.6654 21.536 69.6654Z" fill="white"/>
<path d="M15.2039 68.3991C15.9034 68.3991 16.4704 67.8321 16.4704 67.1326C16.4704 66.4332 15.9034 65.8662 15.2039 65.8662C14.5045 65.8662 13.9375 66.4332 13.9375 67.1326C13.9375 67.8321 14.5045 68.3991 15.2039 68.3991Z" fill="white"/>
<path d="M10.1375 64.5998C10.837 64.5998 11.404 64.0328 11.404 63.3333C11.404 62.6339 10.837 62.0669 10.1375 62.0669C9.43809 62.0669 8.87109 62.6339 8.87109 63.3333C8.87109 64.0328 9.43809 64.5998 10.1375 64.5998Z" fill="white"/>
<path d="M7.60432 59.5338C8.30375 59.5338 8.87075 58.9668 8.87075 58.2674C8.87075 57.568 8.30375 57.001 7.60432 57.001C6.90489 57.001 6.33789 57.568 6.33789 58.2674C6.33789 58.9668 6.90489 59.5338 7.60432 59.5338Z" fill="white"/>
<path d="M27.869 68.3991C28.5684 68.3991 29.1354 67.8321 29.1354 67.1326C29.1354 66.4332 28.5684 65.8662 27.869 65.8662C27.1695 65.8662 26.6025 66.4332 26.6025 67.1326C26.6025 67.8321 27.1695 68.3991 27.869 68.3991Z" fill="white"/>
<path d="M32.9344 64.5998C33.6338 64.5998 34.2008 64.0328 34.2008 63.3333C34.2008 62.6339 33.6338 62.0669 32.9344 62.0669C32.235 62.0669 31.668 62.6339 31.668 63.3333C31.668 64.0328 32.235 64.5998 32.9344 64.5998Z" fill="white"/>
<path d="M53.5338 33.3455C53.1058 33.809 43.0664 44.7919 43.0664 52.1983C43.0664 58.4934 48.1696 63.5966 54.4647 63.5966C60.7597 63.5966 65.8629 58.4933 65.8629 52.1983C65.8629 44.7919 55.8235 33.809 55.3955 33.3455C55.274 33.2219 55.1292 33.1237 54.9694 33.0566C54.8095 32.9896 54.638 32.9551 54.4647 32.9551C54.2913 32.9551 54.1198 32.9896 53.96 33.0566C53.8001 33.1237 53.6553 33.2219 53.5338 33.3455ZM63.3301 52.1983C63.3301 57.0945 59.3609 61.0637 54.4647 61.0637C49.5685 61.0637 45.5993 57.0945 45.5993 52.1983C45.5993 46.9753 52.0166 38.9801 54.4647 36.1229C56.9128 38.9801 63.3301 46.9753 63.3301 52.1983Z" fill="white"/>
<path d="M59.5304 19.0066C59.5278 18.1456 59.3055 17.2996 58.8843 16.5487C58.4632 15.7978 57.8573 15.1669 57.124 14.7157C60.5656 13.4278 62.5925 9.86153 61.938 6.24559C61.2836 2.62953 58.1354 0 54.4607 0C50.786 0 47.6378 2.62953 46.9834 6.24559C46.329 9.86166 48.3557 13.4278 51.7974 14.7157C51.0342 15.1829 50.4095 15.8454 49.9878 16.6346C49.5661 17.4239 49.3627 18.3114 49.3986 19.2055C49.4345 20.0997 49.7083 20.968 50.1919 21.721C50.6755 22.4739 51.3513 23.0842 52.1495 23.4887C46.6839 29.6425 41.9369 36.3988 38.0003 43.627C34.0602 36.4008 29.3126 29.6453 23.8487 23.49C24.647 23.0855 25.3228 22.4754 25.8065 21.7225C26.2902 20.9696 26.5642 20.1013 26.6002 19.2072C26.6362 18.3131 26.4329 17.4255 26.0114 16.6362C25.5898 15.8469 24.9653 15.1843 24.2021 14.717C27.6437 13.4291 29.6705 9.86281 29.0161 6.24688C28.3615 2.63081 25.2134 0.00128038 21.5385 0.00128038C17.8637 0.00128038 14.7156 2.63081 14.0612 6.24688C13.4068 9.86281 15.4335 13.4291 18.8752 14.717C18.112 15.1842 17.4873 15.8466 17.0656 16.6359C16.6439 17.4252 16.4405 18.3127 16.4764 19.2068C16.5123 20.101 16.7862 20.9693 17.2697 21.7223C17.7533 22.4752 18.4291 23.0854 19.2273 23.49C14.7781 28.5634 1.27246 44.9149 1.27246 56.3424C1.45504 67.3594 10.5186 76.1511 21.5361 75.9981C24.7331 76.0033 27.8871 75.2618 30.7468 73.8325C33.6065 72.4033 36.0929 70.326 38.0079 67.766C39.9157 70.3299 42.3985 72.4103 45.2567 73.8401C48.1149 75.2698 51.2687 76.009 54.4646 75.9981C65.4823 76.1504 74.5456 67.3584 74.7282 56.3411C74.7282 44.9162 61.2224 28.5634 56.7759 23.4887C57.6023 23.0665 58.2965 22.4249 58.7824 21.6343C59.2682 20.8437 59.5271 19.9345 59.5304 19.0066ZM49.3986 7.60818C49.3887 4.97315 51.4006 2.77063 54.0256 2.54233C56.6508 2.31404 59.0125 4.13641 59.4576 6.73355C59.9026 9.33069 58.2823 11.8354 55.731 12.4941V11.4075C55.731 10.708 55.1639 10.141 54.4646 10.141C53.7652 10.141 53.1981 10.7081 53.1981 11.4075V12.4941C50.9681 11.9186 49.4072 9.91121 49.3986 7.60818ZM53.198 16.8257V17.7401C53.198 18.4396 53.7651 19.0066 54.4644 19.0066C55.1638 19.0066 55.7309 18.4395 55.7309 17.7401V16.8257C56.2138 17.1045 56.5911 17.5348 56.8045 18.05C57.0179 18.5652 57.0553 19.1363 56.911 19.6749C56.8032 20.0773 56.5978 20.4469 56.3131 20.7509C56.0283 21.055 55.673 21.2841 55.2785 21.418C54.884 21.5519 54.4627 21.5864 54.0516 21.5186C53.6406 21.4507 53.2527 21.2825 52.9223 21.0289C52.5918 20.7753 52.3289 20.4442 52.157 20.0647C51.9851 19.6853 51.9095 19.2693 51.9367 18.8536C51.964 18.4379 52.0934 18.0354 52.3134 17.6817C52.5334 17.3279 52.8372 17.0339 53.198 16.8257ZM16.4701 7.60818C16.4603 4.97315 18.4721 2.77063 21.0972 2.54233C23.7224 2.31404 26.084 4.13641 26.5291 6.73355C26.9742 9.33069 25.3538 11.8354 22.8025 12.4941V11.4075C22.8025 10.708 22.2355 10.141 21.5361 10.141C20.8366 10.141 20.2697 10.7081 20.2697 11.4075V12.4941C18.0398 11.9186 16.4788 9.91121 16.4701 7.60818ZM20.2695 16.8257V17.7401C20.2695 18.4396 20.8366 19.0066 21.536 19.0066C22.2355 19.0066 22.8024 18.4395 22.8024 17.7401V16.8257C23.2853 17.1045 23.6627 17.5348 23.8761 18.05C24.0895 18.5651 24.127 19.1363 23.9827 19.6749C23.8384 20.2135 23.5204 20.6894 23.078 21.0289C22.6356 21.3683 22.0936 21.5523 21.536 21.5523C20.9784 21.5523 20.4364 21.3683 19.994 21.0289C19.5516 20.6894 19.2336 20.2135 19.0893 19.6749C18.945 19.1363 18.9824 18.5651 19.1958 18.05C19.4092 17.5348 19.7866 17.1045 20.2695 16.8257ZM21.5361 73.4651C11.9171 73.619 3.98701 65.9609 3.80545 56.3424C3.80545 45.5659 17.7633 28.9864 21.5361 24.7057C24.2755 27.8124 32.3734 37.3958 36.6071 46.5752C35.166 49.6389 34.348 52.9584 34.2008 56.341C34.2025 59.5273 35.0028 62.6623 36.5285 65.4596C34.8864 67.9297 32.6573 69.954 30.0408 71.3511C27.4244 72.7482 24.5022 73.4746 21.5361 73.4651ZM54.4644 73.4651C44.8449 73.619 36.9147 65.9601 36.7338 56.3411C36.7338 45.5684 50.6916 28.9851 54.4644 24.7044C58.2372 28.9877 72.1951 45.5684 72.1951 56.3411C72.0142 65.9601 64.084 73.619 54.4644 73.4651Z" fill="white"/>
<path d="M54.4647 69.6657C55.1641 69.6657 55.7311 69.0987 55.7311 68.3992C55.7311 67.6998 55.1641 67.1328 54.4647 67.1328C53.7652 67.1328 53.1982 67.6998 53.1982 68.3992C53.1982 69.0987 53.7652 69.6657 54.4647 69.6657Z" fill="white"/>
<path d="M48.1317 68.3993C48.8311 68.3993 49.3981 67.8323 49.3981 67.1329C49.3981 66.4335 48.8311 65.8665 48.1317 65.8665C47.4322 65.8665 46.8652 66.4335 46.8652 67.1329C46.8652 67.8323 47.4322 68.3993 48.1317 68.3993Z" fill="white"/>
<path d="M43.0662 64.5998C43.7657 64.5998 44.3327 64.0328 44.3327 63.3333C44.3327 62.6339 43.7657 62.0669 43.0662 62.0669C42.3668 62.0669 41.7998 62.6339 41.7998 63.3333C41.7998 64.0328 42.3668 64.5998 43.0662 64.5998Z" fill="white"/>
<path d="M40.533 59.5338C41.2325 59.5338 41.7995 58.9668 41.7995 58.2674C41.7995 57.568 41.2325 57.001 40.533 57.001C39.8336 57.001 39.2666 57.568 39.2666 58.2674C39.2666 58.9668 39.8336 59.5338 40.533 59.5338Z" fill="white"/>
<path d="M60.7967 68.3993C61.4961 68.3993 62.0631 67.8323 62.0631 67.1329C62.0631 66.4335 61.4961 65.8665 60.7967 65.8665C60.0973 65.8665 59.5303 66.4335 59.5303 67.1329C59.5303 67.8323 60.0973 68.3993 60.7967 68.3993Z" fill="white"/>
<path d="M65.8631 64.5998C66.5625 64.5998 67.1295 64.0328 67.1295 63.3333C67.1295 62.6339 66.5625 62.0669 65.8631 62.0669C65.1637 62.0669 64.5967 62.6339 64.5967 63.3333C64.5967 64.0328 65.1637 64.5998 65.8631 64.5998Z" fill="white"/>
<path d="M68.3953 59.5338C69.0948 59.5338 69.6618 58.9668 69.6618 58.2674C69.6618 57.568 69.0948 57.001 68.3953 57.001C67.6959 57.001 67.1289 57.568 67.1289 58.2674C67.1289 58.9668 67.6959 59.5338 68.3953 59.5338Z" fill="white"/>
</g>
<defs>
<clipPath id="clip0_220_203">
<rect width="76" height="76" fill="white"/>
</clipPath>
</defs>
</svg>
