<svg width="1912" height="19" fill="none" xmlns="http://www.w3.org/2000/svg"><g filter="url(#a)"><path d="M9.55 10.4c-1.333 0-2.483-.45-3.45-1.35-.933-.933-1.4-2.117-1.4-3.55 0-1.433.467-2.583 1.4-3.45C7.067 1.15 8.217.7 9.55.7c1.367 0 2.517.45 3.45 1.35.933.867 1.4 2.017 1.4 3.45 0 1.433-.467 2.617-1.4 3.55-.933.9-2.083 1.35-3.45 1.35zm23.086 0c-1.333 0-2.483-.45-3.45-1.35-.933-.933-1.4-2.117-1.4-3.55 0-1.433.467-2.583 1.4-3.45.967-.9 2.117-1.35 3.45-1.35 1.367 0 2.517.45 3.45 1.35.933.867 1.4 2.017 1.4 3.45 0 1.433-.467 2.617-1.4 3.55-.933.9-2.083 1.35-3.45 1.35zm23.086 0c-1.334 0-2.483-.45-3.45-1.35-.933-.933-1.4-2.117-1.4-3.55 0-1.433.467-2.583 1.4-3.45.967-.9 2.117-1.35 3.45-1.35 1.367 0 2.517.45 3.45 1.35.933.867 1.4 2.017 1.4 3.45 0 1.433-.467 2.617-1.4 3.55-.933.9-2.083 1.35-3.45 1.35zm23.086 0c-1.334 0-2.484-.45-3.45-1.35-.934-.933-1.4-2.117-1.4-3.55 0-1.433.466-2.583 1.4-3.45.966-.9 2.117-1.35 3.45-1.35 1.366 0 2.516.45 3.45 1.35.933.867 1.4 2.017 1.4 3.45 0 1.433-.467 2.617-1.4 3.55-.933.9-2.084 1.35-3.45 1.35zm23.086 0c-1.334 0-2.484-.45-3.45-1.35-.934-.933-1.4-2.117-1.4-3.55 0-1.433.466-2.583 1.4-3.45.966-.9 2.116-1.35 3.45-1.35 1.366 0 2.516.45 3.45 1.35.933.867 1.4 2.017 1.4 3.45 0 1.433-.467 2.617-1.4 3.55-.934.9-2.084 1.35-3.45 1.35zm23.086 0c-1.334 0-2.484-.45-3.45-1.35-.934-.933-1.4-2.117-1.4-3.55 0-1.433.466-2.583 1.4-3.45.966-.9 2.116-1.35 3.45-1.35 1.366 0 2.516.45 3.45 1.35.933.867 1.4 2.017 1.4 3.45 0 1.433-.467 2.617-1.4 3.55-.934.9-2.084 1.35-3.45 1.35zm23.086 0c-1.334 0-2.484-.45-3.45-1.35-.934-.933-1.4-2.117-1.4-3.55 0-1.433.466-2.583 1.4-3.45.966-.9 2.116-1.35 3.45-1.35 1.366 0 2.516.45 3.45 1.35.933.867 1.4 2.017 1.4 3.45 0 1.433-.467 2.617-1.4 3.55-.934.9-2.084 1.35-3.45 1.35zm23.086 0c-1.334 0-2.484-.45-3.45-1.35-.934-.933-1.4-2.117-1.4-3.55 0-1.433.466-2.583 1.4-3.45.966-.9 2.116-1.35 3.45-1.35 1.366 0 2.516.45 3.45 1.35.933.867 1.4 2.017 1.4 3.45 0 1.433-.467 2.617-1.4 3.55-.934.9-2.084 1.35-3.45 1.35zm23.086 0c-1.334 0-2.484-.45-3.45-1.35-.934-.933-1.4-2.117-1.4-3.55 0-1.433.466-2.583 1.4-3.45.966-.9 2.116-1.35 3.45-1.35 1.366 0 2.516.45 3.45 1.35.933.867 1.4 2.017 1.4 3.45 0 1.433-.467 2.617-1.4 3.55-.934.9-2.084 1.35-3.45 1.35zm23.085 0c-1.333 0-2.483-.45-3.45-1.35-.933-.933-1.4-2.117-1.4-3.55 0-1.433.467-2.583 1.4-3.45.967-.9 2.117-1.35 3.45-1.35 1.367 0 2.517.45 3.45 1.35.934.867 1.4 2.017 1.4 3.45 0 1.433-.466 2.617-1.4 3.55-.933.9-2.083 1.35-3.45 1.35zm23.086 0c-1.333 0-2.483-.45-3.45-1.35-.933-.933-1.4-2.117-1.4-3.55 0-1.433.467-2.583 1.4-3.45.967-.9 2.117-1.35 3.45-1.35 1.367 0 2.517.45 3.45 1.35.934.867 1.4 2.017 1.4 3.45 0 1.433-.466 2.617-1.4 3.55-.933.9-2.083 1.35-3.45 1.35zm23.086 0c-1.333 0-2.483-.45-3.45-1.35-.933-.933-1.4-2.117-1.4-3.55 0-1.433.467-2.583 1.4-3.45.967-.9 2.117-1.35 3.45-1.35 1.367 0 2.517.45 3.45 1.35.934.867 1.4 2.017 1.4 3.45 0 1.433-.466 2.617-1.4 3.55-.933.9-2.083 1.35-3.45 1.35zm23.086 0c-1.333 0-2.483-.45-3.45-1.35-.933-.933-1.4-2.117-1.4-3.55 0-1.433.467-2.583 1.4-3.45.967-.9 2.117-1.35 3.45-1.35 1.367 0 2.517.45 3.45 1.35.934.867 1.4 2.017 1.4 3.45 0 1.433-.466 2.617-1.4 3.55-.933.9-2.083 1.35-3.45 1.35zm23.086 0c-1.333 0-2.483-.45-3.45-1.35-.933-.933-1.4-2.117-1.4-3.55 0-1.433.467-2.583 1.4-3.45.967-.9 2.117-1.35 3.45-1.35 1.367 0 2.517.45 3.45 1.35.934.867 1.4 2.017 1.4 3.45 0 1.433-.466 2.617-1.4 3.55-.933.9-2.083 1.35-3.45 1.35zm23.086 0c-1.333 0-2.483-.45-3.45-1.35-.933-.933-1.4-2.117-1.4-3.55 0-1.433.467-2.583 1.4-3.45.967-.9 2.117-1.35 3.45-1.35 1.367 0 2.517.45 3.45 1.35.933.867 1.4 2.017 1.4 3.45 0 1.433-.467 2.617-1.4 3.55-.933.9-2.083 1.35-3.45 1.35zm23.086 0c-1.333 0-2.483-.45-3.45-1.35-.933-.933-1.4-2.117-1.4-3.55 0-1.433.467-2.583 1.4-3.45.967-.9 2.117-1.35 3.45-1.35 1.367 0 2.517.45 3.45 1.35.933.867 1.4 2.017 1.4 3.45 0 1.433-.467 2.617-1.4 3.55-.933.9-2.083 1.35-3.45 1.35zm23.086 0c-1.333 0-2.483-.45-3.45-1.35-.933-.933-1.4-2.117-1.4-3.55 0-1.433.467-2.583 1.4-3.45.967-.9 2.117-1.35 3.45-1.35 1.367 0 2.517.45 3.45 1.35.933.867 1.4 2.017 1.4 3.45 0 1.433-.467 2.617-1.4 3.55-.933.9-2.083 1.35-3.45 1.35zm23.086 0c-1.333 0-2.483-.45-3.45-1.35-.933-.933-1.4-2.117-1.4-3.55 0-1.433.467-2.583 1.4-3.45.967-.9 2.117-1.35 3.45-1.35 1.367 0 2.517.45 3.45 1.35.933.867 1.4 2.017 1.4 3.45 0 1.433-.467 2.617-1.4 3.55-.933.9-2.083 1.35-3.45 1.35zm23.086 0c-1.333 0-2.483-.45-3.45-1.35-.933-.933-1.4-2.117-1.4-3.55 0-1.433.467-2.583 1.4-3.45.967-.9 2.117-1.35 3.45-1.35 1.367 0 2.517.45 3.45 1.35.933.867 1.4 2.017 1.4 3.45 0 1.433-.467 2.617-1.4 3.55-.933.9-2.083 1.35-3.45 1.35zm23.086 0c-1.334 0-2.484-.45-3.45-1.35-.934-.933-1.4-2.117-1.4-3.55 0-1.433.466-2.583 1.4-3.45.966-.9 2.116-1.35 3.45-1.35 1.366 0 2.516.45 3.45 1.35.933.867 1.4 2.017 1.4 3.45 0 1.433-.467 2.617-1.4 3.55-.934.9-2.084 1.35-3.45 1.35zm23.086 0c-1.334 0-2.484-.45-3.45-1.35-.934-.933-1.4-2.117-1.4-3.55 0-1.433.466-2.583 1.4-3.45.966-.9 2.116-1.35 3.45-1.35 1.366 0 2.516.45 3.45 1.35.933.867 1.4 2.017 1.4 3.45 0 1.433-.467 2.617-1.4 3.55-.934.9-2.084 1.35-3.45 1.35zm23.086 0c-1.334 0-2.484-.45-3.45-1.35-.934-.933-1.4-2.117-1.4-3.55 0-1.433.466-2.583 1.4-3.45.966-.9 2.116-1.35 3.45-1.35 1.366 0 2.516.45 3.45 1.35.933.867 1.4 2.017 1.4 3.45 0 1.433-.467 2.617-1.4 3.55-.934.9-2.084 1.35-3.45 1.35zm23.086 0c-1.334 0-2.484-.45-3.45-1.35-.934-.933-1.4-2.117-1.4-3.55 0-1.433.466-2.583 1.4-3.45.966-.9 2.116-1.35 3.45-1.35 1.366 0 2.516.45 3.45 1.35.933.867 1.4 2.017 1.4 3.45 0 1.433-.467 2.617-1.4 3.55-.934.9-2.084 1.35-3.45 1.35zm23.086 0c-1.334 0-2.484-.45-3.45-1.35-.934-.933-1.4-2.117-1.4-3.55 0-1.433.466-2.583 1.4-3.45.966-.9 2.116-1.35 3.45-1.35 1.366 0 2.516.45 3.45 1.35.933.867 1.4 2.017 1.4 3.45 0 1.433-.467 2.617-1.4 3.55-.934.9-2.084 1.35-3.45 1.35zm23.086 0c-1.334 0-2.484-.45-3.45-1.35-.934-.933-1.4-2.117-1.4-3.55 0-1.433.466-2.583 1.4-3.45.966-.9 2.116-1.35 3.45-1.35 1.366 0 2.516.45 3.45 1.35.933.867 1.4 2.017 1.4 3.45 0 1.433-.467 2.617-1.4 3.55-.934.9-2.084 1.35-3.45 1.35zm23.085 0c-1.333 0-2.483-.45-3.45-1.35-.933-.933-1.4-2.117-1.4-3.55 0-1.433.467-2.583 1.4-3.45.967-.9 2.117-1.35 3.45-1.35 1.367 0 2.517.45 3.45 1.35.934.867 1.4 2.017 1.4 3.45 0 1.433-.466 2.617-1.4 3.55-.933.9-2.083 1.35-3.45 1.35zm23.086 0c-1.333 0-2.483-.45-3.45-1.35-.933-.933-1.4-2.117-1.4-3.55 0-1.433.467-2.583 1.4-3.45.967-.9 2.117-1.35 3.45-1.35 1.367 0 2.517.45 3.45 1.35.934.867 1.4 2.017 1.4 3.45 0 1.433-.466 2.617-1.4 3.55-.933.9-2.083 1.35-3.45 1.35zm23.086 0c-1.333 0-2.483-.45-3.45-1.35-.933-.933-1.4-2.117-1.4-3.55 0-1.433.467-2.583 1.4-3.45.967-.9 2.117-1.35 3.45-1.35 1.367 0 2.517.45 3.45 1.35.934.867 1.4 2.017 1.4 3.45 0 1.433-.466 2.617-1.4 3.55-.933.9-2.083 1.35-3.45 1.35zm23.086 0c-1.333 0-2.483-.45-3.45-1.35-.933-.933-1.4-2.117-1.4-3.55 0-1.433.467-2.583 1.4-3.45.967-.9 2.117-1.35 3.45-1.35 1.367 0 2.517.45 3.45 1.35.934.867 1.4 2.017 1.4 3.45 0 1.433-.466 2.617-1.4 3.55-.933.9-2.083 1.35-3.45 1.35zm23.086 0c-1.333 0-2.483-.45-3.45-1.35-.933-.933-1.4-2.117-1.4-3.55 0-1.433.467-2.583 1.4-3.45.967-.9 2.117-1.35 3.45-1.35 1.367 0 2.517.45 3.45 1.35.934.867 1.4 2.017 1.4 3.45 0 1.433-.466 2.617-1.4 3.55-.933.9-2.083 1.35-3.45 1.35zm23.086 0c-1.333 0-2.483-.45-3.45-1.35-.933-.933-1.4-2.117-1.4-3.55 0-1.433.467-2.583 1.4-3.45.967-.9 2.117-1.35 3.45-1.35 1.367 0 2.517.45 3.45 1.35.933.867 1.4 2.017 1.4 3.45 0 1.433-.467 2.617-1.4 3.55-.933.9-2.083 1.35-3.45 1.35zm23.086 0c-1.333 0-2.483-.45-3.45-1.35-.933-.933-1.4-2.117-1.4-3.55 0-1.433.467-2.583 1.4-3.45.967-.9 2.117-1.35 3.45-1.35 1.367 0 2.517.45 3.45 1.35.933.867 1.4 2.017 1.4 3.45 0 1.433-.467 2.617-1.4 3.55-.933.9-2.083 1.35-3.45 1.35zm23.086 0c-1.333 0-2.483-.45-3.45-1.35-.933-.933-1.4-2.117-1.4-3.55 0-1.433.467-2.583 1.4-3.45.967-.9 2.117-1.35 3.45-1.35 1.367 0 2.517.45 3.45 1.35.933.867 1.4 2.017 1.4 3.45 0 1.433-.467 2.617-1.4 3.55-.933.9-2.083 1.35-3.45 1.35zm23.086 0c-1.333 0-2.483-.45-3.45-1.35-.933-.933-1.4-2.117-1.4-3.55 0-1.433.467-2.583 1.4-3.45.967-.9 2.117-1.35 3.45-1.35 1.367 0 2.517.45 3.45 1.35.933.867 1.4 2.017 1.4 3.45 0 1.433-.467 2.617-1.4 3.55-.933.9-2.083 1.35-3.45 1.35zm23.086 0c-1.333 0-2.483-.45-3.45-1.35-.933-.933-1.4-2.117-1.4-3.55 0-1.433.467-2.583 1.4-3.45.967-.9 2.117-1.35 3.45-1.35 1.367 0 2.517.45 3.45 1.35.933.867 1.4 2.017 1.4 3.45 0 1.433-.467 2.617-1.4 3.55-.933.9-2.083 1.35-3.45 1.35zm23.086 0c-1.334 0-2.484-.45-3.45-1.35-.934-.933-1.4-2.117-1.4-3.55 0-1.433.466-2.583 1.4-3.45.966-.9 2.116-1.35 3.45-1.35 1.366 0 2.516.45 3.45 1.35.933.867 1.4 2.017 1.4 3.45 0 1.433-.467 2.617-1.4 3.55-.934.9-2.084 1.35-3.45 1.35zm23.086 0c-1.334 0-2.484-.45-3.45-1.35-.934-.933-1.4-2.117-1.4-3.55 0-1.433.466-2.583 1.4-3.45.966-.9 2.116-1.35 3.45-1.35 1.366 0 2.516.45 3.45 1.35.933.867 1.4 2.017 1.4 3.45 0 1.433-.467 2.617-1.4 3.55-.934.9-2.084 1.35-3.45 1.35zm23.086 0c-1.334 0-2.484-.45-3.45-1.35-.934-.933-1.4-2.117-1.4-3.55 0-1.433.466-2.583 1.4-3.45.966-.9 2.116-1.35 3.45-1.35 1.366 0 2.516.45 3.45 1.35.933.867 1.4 2.017 1.4 3.45 0 1.433-.467 2.617-1.4 3.55-.934.9-2.084 1.35-3.45 1.35zm23.086 0c-1.334 0-2.484-.45-3.45-1.35-.934-.933-1.4-2.117-1.4-3.55 0-1.433.466-2.583 1.4-3.45.966-.9 2.116-1.35 3.45-1.35 1.366 0 2.516.45 3.45 1.35.933.867 1.4 2.017 1.4 3.45 0 1.433-.467 2.617-1.4 3.55-.934.9-2.084 1.35-3.45 1.35zm23.086 0c-1.334 0-2.484-.45-3.45-1.35-.934-.933-1.4-2.117-1.4-3.55 0-1.433.466-2.583 1.4-3.45.966-.9 2.116-1.35 3.45-1.35 1.366 0 2.516.45 3.45 1.35.933.867 1.4 2.017 1.4 3.45 0 1.433-.467 2.617-1.4 3.55-.934.9-2.084 1.35-3.45 1.35zm23.086 0c-1.334 0-2.484-.45-3.45-1.35-.934-.933-1.4-2.117-1.4-3.55 0-1.433.466-2.583 1.4-3.45.966-.9 2.116-1.35 3.45-1.35 1.366 0 2.516.45 3.45 1.35.933.867 1.4 2.017 1.4 3.45 0 1.433-.467 2.617-1.4 3.55-.934.9-2.084 1.35-3.45 1.35zm23.085 0c-1.333 0-2.483-.45-3.45-1.35-.933-.933-1.4-2.117-1.4-3.55 0-1.433.467-2.583 1.4-3.45.967-.9 2.117-1.35 3.45-1.35 1.367 0 2.517.45 3.45 1.35.934.867 1.4 2.017 1.4 3.45 0 1.433-.466 2.617-1.4 3.55-.933.9-2.083 1.35-3.45 1.35zm23.086 0c-1.333 0-2.483-.45-3.45-1.35-.933-.933-1.4-2.117-1.4-3.55 0-1.433.467-2.583 1.4-3.45.967-.9 2.117-1.35 3.45-1.35 1.367 0 2.517.45 3.45 1.35.934.867 1.4 2.017 1.4 3.45 0 1.433-.466 2.617-1.4 3.55-.933.9-2.083 1.35-3.45 1.35zm23.091 0c-1.34 0-2.488-.45-3.455-1.35-.933-.933-1.4-2.117-1.4-3.55 0-1.433.467-2.583 1.4-3.45.967-.9 2.115-1.35 3.455-1.35 1.36 0 2.51.45 3.45 1.35.93.867 1.4 2.017 1.4 3.45 0 1.433-.47 2.617-1.4 3.55-.94.9-2.09 1.35-3.45 1.35zm23.08 0c-1.33 0-2.48-.45-3.45-1.35-.93-.933-1.4-2.117-1.4-3.55 0-1.433.47-2.583 1.4-3.45.97-.9 2.12-1.35 3.45-1.35 1.37 0 2.52.45 3.45 1.35.93.867 1.4 2.017 1.4 3.45 0 1.433-.47 2.617-1.4 3.55-.93.9-2.08 1.35-3.45 1.35zm23.09 0c-1.34 0-2.49-.45-3.45-1.35-.94-.933-1.4-2.117-1.4-3.55 0-1.433.46-2.583 1.4-3.45.96-.9 2.11-1.35 3.45-1.35 1.36 0 2.51.45 3.45 1.35.93.867 1.4 2.017 1.4 3.45 0 1.433-.47 2.617-1.4 3.55-.94.9-2.09 1.35-3.45 1.35zm23.08 0c-1.33 0-2.48-.45-3.45-1.35-.93-.933-1.4-2.117-1.4-3.55 0-1.433.47-2.583 1.4-3.45.97-.9 2.12-1.35 3.45-1.35 1.37 0 2.52.45 3.45 1.35.94.867 1.4 2.017 1.4 3.45 0 1.433-.46 2.617-1.4 3.55-.93.9-2.08 1.35-3.45 1.35zm23.09 0c-1.33 0-2.48-.45-3.45-1.35-.93-.933-1.4-2.117-1.4-3.55 0-1.433.47-2.583 1.4-3.45.97-.9 2.12-1.35 3.45-1.35 1.37 0 2.52.45 3.45 1.35.93.867 1.4 2.017 1.4 3.45 0 1.433-.47 2.617-1.4 3.55-.93.9-2.08 1.35-3.45 1.35zm23.09 0c-1.34 0-2.49-.45-3.45-1.35-.94-.933-1.4-2.117-1.4-3.55 0-1.433.46-2.583 1.4-3.45.96-.9 2.11-1.35 3.45-1.35 1.36 0 2.51.45 3.45 1.35.93.867 1.4 2.017 1.4 3.45 0 1.433-.47 2.617-1.4 3.55-.94.9-2.09 1.35-3.45 1.35zm23.08 0c-1.33 0-2.48-.45-3.45-1.35-.93-.933-1.4-2.117-1.4-3.55 0-1.433.47-2.583 1.4-3.45.97-.9 2.12-1.35 3.45-1.35 1.37 0 2.52.45 3.45 1.35.93.867 1.4 2.017 1.4 3.45 0 1.433-.47 2.617-1.4 3.55-.93.9-2.08 1.35-3.45 1.35zm23.09 0c-1.34 0-2.49-.45-3.45-1.35-.94-.933-1.4-2.117-1.4-3.55 0-1.433.46-2.583 1.4-3.45.96-.9 2.11-1.35 3.45-1.35 1.36 0 2.51.45 3.45 1.35.93.867 1.4 2.017 1.4 3.45 0 1.433-.47 2.617-1.4 3.55-.94.9-2.09 1.35-3.45 1.35zm23.08 0c-1.33 0-2.48-.45-3.45-1.35-.93-.933-1.4-2.117-1.4-3.55 0-1.433.47-2.583 1.4-3.45.97-.9 2.12-1.35 3.45-1.35 1.37 0 2.52.45 3.45 1.35.94.867 1.4 2.017 1.4 3.45 0 1.433-.46 2.617-1.4 3.55-.93.9-2.08 1.35-3.45 1.35zm23.09 0c-1.33 0-2.48-.45-3.45-1.35-.93-.933-1.4-2.117-1.4-3.55 0-1.433.47-2.583 1.4-3.45.97-.9 2.12-1.35 3.45-1.35 1.37 0 2.52.45 3.45 1.35.93.867 1.4 2.017 1.4 3.45 0 1.433-.47 2.617-1.4 3.55-.93.9-2.08 1.35-3.45 1.35zm23.08 0c-1.33 0-2.48-.45-3.45-1.35-.93-.933-1.4-2.117-1.4-3.55 0-1.433.47-2.583 1.4-3.45.97-.9 2.12-1.35 3.45-1.35 1.37 0 2.52.45 3.45 1.35.94.867 1.4 2.017 1.4 3.45 0 1.433-.46 2.617-1.4 3.55-.93.9-2.08 1.35-3.45 1.35zm23.09 0c-1.33 0-2.48-.45-3.45-1.35-.93-.933-1.4-2.117-1.4-3.55 0-1.433.47-2.583 1.4-3.45.97-.9 2.12-1.35 3.45-1.35 1.37 0 2.52.45 3.45 1.35.93.867 1.4 2.017 1.4 3.45 0 1.433-.47 2.617-1.4 3.55-.93.9-2.08 1.35-3.45 1.35zm23.09 0c-1.34 0-2.49-.45-3.45-1.35-.94-.933-1.4-2.117-1.4-3.55 0-1.433.46-2.583 1.4-3.45.96-.9 2.11-1.35 3.45-1.35 1.36 0 2.51.45 3.45 1.35.93.867 1.4 2.017 1.4 3.45 0 1.433-.47 2.617-1.4 3.55-.94.9-2.09 1.35-3.45 1.35zm23.08 0c-1.33 0-2.48-.45-3.45-1.35-.93-.933-1.4-2.117-1.4-3.55 0-1.433.47-2.583 1.4-3.45.97-.9 2.12-1.35 3.45-1.35 1.37 0 2.52.45 3.45 1.35.94.867 1.4 2.017 1.4 3.45 0 1.433-.46 2.617-1.4 3.55-.93.9-2.08 1.35-3.45 1.35zm23.09 0c-1.33 0-2.48-.45-3.45-1.35-.93-.933-1.4-2.117-1.4-3.55 0-1.433.47-2.583 1.4-3.45.97-.9 2.12-1.35 3.45-1.35 1.37 0 2.52.45 3.45 1.35.93.867 1.4 2.017 1.4 3.45 0 1.433-.47 2.617-1.4 3.55-.93.9-2.08 1.35-3.45 1.35zm23.08 0c-1.33 0-2.48-.45-3.45-1.35-.93-.933-1.4-2.117-1.4-3.55 0-1.433.47-2.583 1.4-3.45.97-.9 2.12-1.35 3.45-1.35 1.37 0 2.52.45 3.45 1.35.94.867 1.4 2.017 1.4 3.45 0 1.433-.46 2.617-1.4 3.55-.93.9-2.08 1.35-3.45 1.35zm23.09 0c-1.33 0-2.48-.45-3.45-1.35-.93-.933-1.4-2.117-1.4-3.55 0-1.433.47-2.583 1.4-3.45.97-.9 2.12-1.35 3.45-1.35 1.37 0 2.52.45 3.45 1.35.93.867 1.4 2.017 1.4 3.45 0 1.433-.47 2.617-1.4 3.55-.93.9-2.08 1.35-3.45 1.35zm23.09 0c-1.34 0-2.49-.45-3.45-1.35-.94-.933-1.4-2.117-1.4-3.55 0-1.433.46-2.583 1.4-3.45.96-.9 2.11-1.35 3.45-1.35 1.36 0 2.51.45 3.45 1.35.93.867 1.4 2.017 1.4 3.45 0 1.433-.47 2.617-1.4 3.55-.94.9-2.09 1.35-3.45 1.35zm23.08 0c-1.33 0-2.48-.45-3.45-1.35-.93-.933-1.4-2.117-1.4-3.55 0-1.433.47-2.583 1.4-3.45.97-.9 2.12-1.35 3.45-1.35 1.37 0 2.52.45 3.45 1.35.94.867 1.4 2.017 1.4 3.45 0 1.433-.46 2.617-1.4 3.55-.93.9-2.08 1.35-3.45 1.35zm23.09 0c-1.34 0-2.49-.45-3.45-1.35-.94-.933-1.4-2.117-1.4-3.55 0-1.433.46-2.583 1.4-3.45.96-.9 2.11-1.35 3.45-1.35 1.36 0 2.51.45 3.45 1.35.93.867 1.4 2.017 1.4 3.45 0 1.433-.47 2.617-1.4 3.55-.94.9-2.09 1.35-3.45 1.35zm23.08 0c-1.33 0-2.48-.45-3.45-1.35-.93-.933-1.4-2.117-1.4-3.55 0-1.433.47-2.583 1.4-3.45.97-.9 2.12-1.35 3.45-1.35 1.37 0 2.52.45 3.45 1.35.94.867 1.4 2.017 1.4 3.45 0 1.433-.46 2.617-1.4 3.55-.93.9-2.08 1.35-3.45 1.35zm23.09 0c-1.33 0-2.48-.45-3.45-1.35-.93-.933-1.4-2.117-1.4-3.55 0-1.433.47-2.583 1.4-3.45.97-.9 2.12-1.35 3.45-1.35 1.37 0 2.52.45 3.45 1.35.93.867 1.4 2.017 1.4 3.45 0 1.433-.47 2.617-1.4 3.55-.93.9-2.08 1.35-3.45 1.35zm23.09 0c-1.34 0-2.49-.45-3.45-1.35-.94-.933-1.4-2.117-1.4-3.55 0-1.433.46-2.583 1.4-3.45.96-.9 2.11-1.35 3.45-1.35 1.36 0 2.51.45 3.45 1.35.93.867 1.4 2.017 1.4 3.45 0 1.433-.47 2.617-1.4 3.55-.94.9-2.09 1.35-3.45 1.35zm23.08 0c-1.33 0-2.48-.45-3.45-1.35-.93-.933-1.4-2.117-1.4-3.55 0-1.433.47-2.583 1.4-3.45.97-.9 2.12-1.35 3.45-1.35 1.37 0 2.52.45 3.45 1.35.94.867 1.4 2.017 1.4 3.45 0 1.433-.46 2.617-1.4 3.55-.93.9-2.08 1.35-3.45 1.35zm23.09 0c-1.34 0-2.49-.45-3.45-1.35-.94-.933-1.4-2.117-1.4-3.55 0-1.433.46-2.583 1.4-3.45.96-.9 2.11-1.35 3.45-1.35 1.36 0 2.51.45 3.45 1.35.93.867 1.4 2.017 1.4 3.45 0 1.433-.47 2.617-1.4 3.55-.94.9-2.09 1.35-3.45 1.35zm23.08 0c-1.33 0-2.48-.45-3.45-1.35-.93-.933-1.4-2.117-1.4-3.55 0-1.433.47-2.583 1.4-3.45.97-.9 2.12-1.35 3.45-1.35 1.37 0 2.52.45 3.45 1.35.94.867 1.4 2.017 1.4 3.45 0 1.433-.46 2.617-1.4 3.55-.93.9-2.08 1.35-3.45 1.35zm23.09 0c-1.33 0-2.48-.45-3.45-1.35-.93-.933-1.4-2.117-1.4-3.55 0-1.433.47-2.583 1.4-3.45.97-.9 2.12-1.35 3.45-1.35 1.37 0 2.52.45 3.45 1.35.93.867 1.4 2.017 1.4 3.45 0 1.433-.47 2.617-1.4 3.55-.93.9-2.08 1.35-3.45 1.35zm23.09 0c-1.34 0-2.49-.45-3.45-1.35-.94-.933-1.4-2.117-1.4-3.55 0-1.433.46-2.583 1.4-3.45.96-.9 2.11-1.35 3.45-1.35 1.36 0 2.51.45 3.45 1.35.93.867 1.4 2.017 1.4 3.45 0 1.433-.47 2.617-1.4 3.55-.94.9-2.09 1.35-3.45 1.35zm23.08 0c-1.33 0-2.48-.45-3.45-1.35-.93-.933-1.4-2.117-1.4-3.55 0-1.433.47-2.583 1.4-3.45.97-.9 2.12-1.35 3.45-1.35 1.37 0 2.52.45 3.45 1.35.93.867 1.4 2.017 1.4 3.45 0 1.433-.47 2.617-1.4 3.55-.93.9-2.08 1.35-3.45 1.35zm23.09 0c-1.34 0-2.49-.45-3.45-1.35-.94-.933-1.4-2.117-1.4-3.55 0-1.433.46-2.583 1.4-3.45.96-.9 2.11-1.35 3.45-1.35 1.36 0 2.51.45 3.45 1.35.93.867 1.4 2.017 1.4 3.45 0 1.433-.47 2.617-1.4 3.55-.94.9-2.09 1.35-3.45 1.35zm23.08 0c-1.33 0-2.48-.45-3.45-1.35-.93-.933-1.4-2.117-1.4-3.55 0-1.433.47-2.583 1.4-3.45.97-.9 2.12-1.35 3.45-1.35 1.37 0 2.52.45 3.45 1.35.94.867 1.4 2.017 1.4 3.45 0 1.433-.46 2.617-1.4 3.55-.93.9-2.08 1.35-3.45 1.35zm23.09 0c-1.33 0-2.48-.45-3.45-1.35-.93-.933-1.4-2.117-1.4-3.55 0-1.433.47-2.583 1.4-3.45.97-.9 2.12-1.35 3.45-1.35 1.37 0 2.52.45 3.45 1.35.93.867 1.4 2.017 1.4 3.45 0 1.433-.47 2.617-1.4 3.55-.93.9-2.08 1.35-3.45 1.35zm23.09 0c-1.34 0-2.49-.45-3.45-1.35-.94-.933-1.4-2.117-1.4-3.55 0-1.433.46-2.583 1.4-3.45.96-.9 2.11-1.35 3.45-1.35 1.36 0 2.51.45 3.45 1.35.93.867 1.4 2.017 1.4 3.45 0 1.433-.47 2.617-1.4 3.55-.94.9-2.09 1.35-3.45 1.35zm23.08 0c-1.33 0-2.48-.45-3.45-1.35-.93-.933-1.4-2.117-1.4-3.55 0-1.433.47-2.583 1.4-3.45.97-.9 2.12-1.35 3.45-1.35 1.37 0 2.52.45 3.45 1.35.93.867 1.4 2.017 1.4 3.45 0 1.433-.47 2.617-1.4 3.55-.93.9-2.08 1.35-3.45 1.35zm23.09 0c-1.34 0-2.49-.45-3.45-1.35-.94-.933-1.4-2.117-1.4-3.55 0-1.433.46-2.583 1.4-3.45.96-.9 2.11-1.35 3.45-1.35 1.36 0 2.51.45 3.45 1.35.93.867 1.4 2.017 1.4 3.45 0 1.433-.47 2.617-1.4 3.55-.94.9-2.09 1.35-3.45 1.35zm23.08 0c-1.33 0-2.48-.45-3.45-1.35-.93-.933-1.4-2.117-1.4-3.55 0-1.433.47-2.583 1.4-3.45.97-.9 2.12-1.35 3.45-1.35 1.37 0 2.52.45 3.45 1.35.94.867 1.4 2.017 1.4 3.45 0 1.433-.46 2.617-1.4 3.55-.93.9-2.08 1.35-3.45 1.35zm23.09 0c-1.33 0-2.48-.45-3.45-1.35-.93-.933-1.4-2.117-1.4-3.55 0-1.433.47-2.583 1.4-3.45.97-.9 2.12-1.35 3.45-1.35 1.37 0 2.52.45 3.45 1.35.93.867 1.4 2.017 1.4 3.45 0 1.433-.47 2.617-1.4 3.55-.93.9-2.08 1.35-3.45 1.35zm23.09 0c-1.34 0-2.49-.45-3.45-1.35-.94-.933-1.4-2.117-1.4-3.55 0-1.433.46-2.583 1.4-3.45.96-.9 2.11-1.35 3.45-1.35 1.36 0 2.51.45 3.45 1.35.93.867 1.4 2.017 1.4 3.45 0 1.433-.47 2.617-1.4 3.55-.94.9-2.09 1.35-3.45 1.35zm23.08 0c-1.33 0-2.48-.45-3.45-1.35-.93-.933-1.4-2.117-1.4-3.55 0-1.433.47-2.583 1.4-3.45.97-.9 2.12-1.35 3.45-1.35 1.37 0 2.52.45 3.45 1.35.93.867 1.4 2.017 1.4 3.45 0 1.433-.47 2.617-1.4 3.55-.93.9-2.08 1.35-3.45 1.35zm23.09 0c-1.34 0-2.49-.45-3.45-1.35-.94-.933-1.4-2.117-1.4-3.55 0-1.433.46-2.583 1.4-3.45.96-.9 2.11-1.35 3.45-1.35 1.36 0 2.51.45 3.45 1.35.93.867 1.4 2.017 1.4 3.45 0 1.433-.47 2.617-1.4 3.55-.94.9-2.09 1.35-3.45 1.35z" fill="#191D24"/></g><defs><filter id="a" x=".699" y=".7" width="1910.75" height="17.7" filterUnits="userSpaceOnUse" color-interpolation-filters="sRGB"><feFlood flood-opacity="0" result="BackgroundImageFix"/><feColorMatrix in="SourceAlpha" values="0 0 0 0 0 0 0 0 0 0 0 0 0 0 0 0 0 0 127 0" result="hardAlpha"/><feOffset dy="4"/><feGaussianBlur stdDeviation="2"/><feComposite in2="hardAlpha" operator="out"/><feColorMatrix values="0 0 0 0 0 0 0 0 0 0 0 0 0 0 0 0 0 0 0.25 0"/><feBlend in2="BackgroundImageFix" result="effect1_dropShadow_274_2406"/><feBlend in="SourceGraphic" in2="effect1_dropShadow_274_2406" result="shape"/></filter></defs></svg>