<svg width="517" height="18" fill="none" xmlns="http://www.w3.org/2000/svg"><g opacity=".3" fill-rule="evenodd" clip-rule="evenodd" fill="#EEDCB3"><path d="M157 0h2v18h-2V0z"/><path opacity=".36" d="M173 0h2v10h-2V0zM190 0h2v10h-2V0zM123 0h2v10h-2V0zM140 0h2v10h-2V0zM208 0h2v13h-2V0zM105 0h2v13h-2V0z"/><path d="M259 0h2v18h-2V0z"/><path opacity=".36" d="M275 0h2v10h-2V0zM292 0h2v10h-2V0zM225 0h2v10h-2V0zM242 0h2v10h-2V0zM310 0h2v13h-2V0z"/><path d="M360 0h2v18h-2V0z"/><path opacity=".36" d="M376 0h2v10h-2V0zM393 0h2v10h-2V0zM326 0h2v10h-2V0zM343 0h2v10h-2V0zM411 0h2v13h-2V0z"/><g opacity=".3"><path d="M464 0h2v18h-2V0z"/><path opacity=".36" d="M480 0h2v10h-2V0zM497 0h2v10h-2V0zM430 0h2v10h-2V0zM447 0h2v10h-2V0zM515 0h2v13h-2V0z"/></g><g opacity=".3"><path d="M53 0h-2v18h2V0z"/><path opacity=".36" d="M37 0h-2v10h2V0zM20 0h-2v10h2V0zM87 0h-2v10h2V0zM70 0h-2v10h2V0zM2 0H0v13h2V0z"/></g></g></svg>